<svg width="1440" height="288" viewBox="0 0 1440 288" xmlns="http://www.w3.org/2000/svg">
  <defs>
    <linearGradient id="bg" x1="0" y1="0" x2="1" y2="1">
      <stop offset="0%" stop-color="#140b0a" />
      <stop offset="100%" stop-color="#2a140f" />
    </linearGradient>
    <marker id="arrow" markerWidth="12" markerHeight="10" refX="11" refY="5" orient="auto">
      <polygon points="0,0 12,5 0,10" fill="#f97316" />
    </marker>
    <filter id="glow" x="-50%" y="-50%" width="200%" height="200%">
      <feGaussianBlur in="SourceGraphic" stdDeviation="3" result="blur" />
      <feMerge>
        <feMergeNode in="blur"/>
        <feMergeNode in="SourceGraphic"/>
      </feMerge>
    </filter>
  </defs>
  <rect width="1440" height="288" fill="url(#bg)" rx="19"/>
  <rect x="10" y="10" width="1421" height="269" fill="none" stroke="#1f2937" rx="17"/>
<rect x="96" y="72" width="216" height="84" rx="12" fill="#f97316" fill-opacity="0.16" stroke="#f97316" stroke-width="3"/><text x="204.0" y="104.0" text-anchor="middle" font-family="Segoe UI, Arial" font-size="19" fill="#e6edf3" font-weight="700" letter-spacing="0.3"><tspan x="204.0" dy="0">Generate</tspan><tspan x="204.0" dy="19">Chunk</tspan></text><rect x="348" y="72" width="216" height="84" rx="12" fill="#f97316" fill-opacity="0.16" stroke="#f97316" stroke-width="3"/><text x="456.0" y="104.0" text-anchor="middle" font-family="Segoe UI, Arial" font-size="19" fill="#e6edf3" font-weight="700" letter-spacing="0.3"><tspan x="456.0" dy="0">Trim</tspan><tspan x="456.0" dy="19">Context</tspan></text><rect x="600" y="72" width="216" height="84" rx="12" fill="#f97316" fill-opacity="0.16" stroke="#f97316" stroke-width="3"/><text x="708.0" y="104.0" text-anchor="middle" font-family="Segoe UI, Arial" font-size="19" fill="#e6edf3" font-weight="700" letter-spacing="0.3"><tspan x="708.0" dy="0">Carryover</tspan><tspan x="708.0" dy="19">State</tspan></text><rect x="852" y="72" width="216" height="84" rx="12" fill="#f97316" fill-opacity="0.16" stroke="#f97316" stroke-width="3"/><text x="960.0" y="104.0" text-anchor="middle" font-family="Segoe UI, Arial" font-size="19" fill="#e6edf3" font-weight="700" letter-spacing="0.3"><tspan x="960.0" dy="0">Next</tspan><tspan x="960.0" dy="19">Chunk</tspan></text><rect x="336" y="180" width="276" height="84" rx="12" fill="#f97316" fill-opacity="0.16" stroke="#f97316" stroke-width="3"/><text x="474.0" y="212.0" text-anchor="middle" font-family="Segoe UI, Arial" font-size="19" fill="#e6edf3" font-weight="700" letter-spacing="0.3"><tspan x="474.0" dy="0">Rollout Engine</tspan><tspan x="474.0" dy="19">(vLLM/SGLang)</tspan></text><rect x="648" y="180" width="276" height="84" rx="12" fill="#f97316" fill-opacity="0.16" stroke="#f97316" stroke-width="3"/><text x="786.0" y="212.0" text-anchor="middle" font-family="Segoe UI, Arial" font-size="19" fill="#e6edf3" font-weight="700" letter-spacing="0.3"><tspan x="786.0" dy="0">Trainer</tspan><tspan x="786.0" dy="19">PPO/GRPO + FSDP</tspan></text><line x1="312" y1="114" x2="348" y2="114" stroke="#f97316" stroke-width="2" marker-end="url(#arrow)" /><line x1="564" y1="114" x2="600" y2="114" stroke="#f97316" stroke-width="2" marker-end="url(#arrow)" /><line x1="816" y1="114" x2="852" y2="114" stroke="#f97316" stroke-width="2" marker-end="url(#arrow)" /><line x1="1068" y1="114" x2="96" y2="114" stroke="#f97316" stroke-width="2" marker-end="url(#arrow)" /><line x1="444" y1="156" x2="444" y2="180" stroke="#f97316" stroke-width="2" marker-end="url(#arrow)" /><line x1="786" y1="156" x2="786" y2="180" stroke="#f97316" stroke-width="2" marker-end="url(#arrow)" /></svg>
