<svg width="1440" height="288" viewBox="0 0 1440 288" xmlns="http://www.w3.org/2000/svg">
  <defs>
    <linearGradient id="bg" x1="0" y1="0" x2="1" y2="1">
      <stop offset="0%" stop-color="#0b0f1a" />
      <stop offset="100%" stop-color="#111827" />
    </linearGradient>
    <marker id="arrow" markerWidth="12" markerHeight="10" refX="11" refY="5" orient="auto">
      <polygon points="0,0 12,5 0,10" fill="#38bdf8" />
    </marker>
    <filter id="glow" x="-50%" y="-50%" width="200%" height="200%">
      <feGaussianBlur in="SourceGraphic" stdDeviation="4" result="blur" />
      <feMerge>
        <feMergeNode in="blur"/>
        <feMergeNode in="SourceGraphic"/>
      </feMerge>
    </filter>
  </defs>
  <rect width="1440" height="288" fill="url(#bg)" rx="19"/>
  <rect x="10" y="10" width="1421" height="269" fill="none" stroke="#1f2937" rx="17"/>
<g transform="translate(72.0 14.4) scale(0.9)">
<rect x="72" y="108" width="216" height="84" rx="12" fill="#0f172a" stroke="#38bdf8" stroke-width="2"/><text x="180.0" y="140.0" text-anchor="middle" font-family="Segoe UI, Arial" font-size="18" fill="#e6edf3" font-weight="600"><tspan x="180.0" dy="0">Input</tspan><tspan x="180.0" dy="19">Tokens</tspan></text><rect x="324" y="108" width="228" height="84" rx="12" fill="#0f172a" stroke="#38bdf8" stroke-width="2"/><text x="438.0" y="140.0" text-anchor="middle" font-family="Segoe UI, Arial" font-size="18" fill="#e6edf3" font-weight="600"><tspan x="438.0" dy="0">Embedding</tspan></text><rect x="576" y="60" width="228" height="84" rx="12" fill="#0f172a" stroke="#38bdf8" stroke-width="2"/><text x="690.0" y="92.0" text-anchor="middle" font-family="Segoe UI, Arial" font-size="18" fill="#e6edf3" font-weight="600"><tspan x="690.0" dy="0">L-Module</tspan><tspan x="690.0" dy="19">Fast</tspan></text><rect x="576" y="168" width="228" height="84" rx="12" fill="#0f172a" stroke="#38bdf8" stroke-width="2"/><text x="690.0" y="200.0" text-anchor="middle" font-family="Segoe UI, Arial" font-size="18" fill="#e6edf3" font-weight="600"><tspan x="690.0" dy="0">H-Module</tspan><tspan x="690.0" dy="19">Global</tspan></text><rect x="840" y="108" width="240" height="84" rx="12" fill="#0f172a" stroke="#38bdf8" stroke-width="2"/><text x="960.0" y="140.0" text-anchor="middle" font-family="Segoe UI, Arial" font-size="18" fill="#e6edf3" font-weight="600"><tspan x="960.0" dy="0">Synchronization</tspan></text><rect x="1116" y="108" width="240" height="84" rx="12" fill="#0f172a" stroke="#38bdf8" stroke-width="2"/><text x="1236.0" y="140.0" text-anchor="middle" font-family="Segoe UI, Arial" font-size="18" fill="#e6edf3" font-weight="600"><tspan x="1236.0" dy="0">Thinking</tspan><tspan x="1236.0" dy="19">Cycles</tspan></text><rect x="1392" y="108" width="192" height="84" rx="12" fill="#0f172a" stroke="#38bdf8" stroke-width="2"/><text x="1488.0" y="140.0" text-anchor="middle" font-family="Segoe UI, Arial" font-size="18" fill="#e6edf3" font-weight="600"><tspan x="1488.0" dy="0">Output</tspan></text><line x1="288" y1="150" x2="324" y2="150" stroke="#38bdf8" stroke-width="2" marker-end="url(#arrow)" /><line x1="552" y1="150" x2="576" y2="102" stroke="#38bdf8" stroke-width="2" marker-end="url(#arrow)" /><line x1="552" y1="150" x2="576" y2="210" stroke="#38bdf8" stroke-width="2" marker-end="url(#arrow)" /><line x1="804" y1="102" x2="840" y2="150" stroke="#38bdf8" stroke-width="2" marker-end="url(#arrow)" /><line x1="804" y1="210" x2="840" y2="150" stroke="#38bdf8" stroke-width="2" marker-end="url(#arrow)" /><line x1="1080" y1="150" x2="1116" y2="150" stroke="#38bdf8" stroke-width="2" marker-end="url(#arrow)" /><line x1="1356" y1="150" x2="1392" y2="150" stroke="#38bdf8" stroke-width="2" marker-end="url(#arrow)" /></g>
</svg>
