<svg width="1200" height="240" viewBox="0 0 1200 240" xmlns="http://www.w3.org/2000/svg">
  <defs>
    <linearGradient id="bg" x1="0" y1="0" x2="1" y2="1">
      <stop offset="0%" stop-color="#0b0f1a" />
      <stop offset="100%" stop-color="#111827" />
    </linearGradient>
    <marker id="arrow" markerWidth="10" markerHeight="8" refX="9" refY="4" orient="auto">
      <polygon points="0,0 10,4 0,8" fill="#38bdf8" />
    </marker>
    <filter id="glow" x="-50%" y="-50%" width="200%" height="200%">
      <feGaussianBlur in="SourceGraphic" stdDeviation="3" result="blur" />
      <feMerge>
        <feMergeNode in="blur"/>
        <feMergeNode in="SourceGraphic"/>
      </feMerge>
    </filter>
  </defs>
  <rect width="1200" height="240" fill="url(#bg)" rx="16"/>
  <rect x="8" y="8" width="1184" height="224" fill="none" stroke="#1f2937" rx="14"/>
<rect x="40" y="90" width="150" height="60" rx="10" fill="#0f172a" stroke="#38bdf8" stroke-width="2"/><text x="115.0" y="112.0" text-anchor="middle" font-family="Segoe UI, Arial" font-size="15" fill="#e6edf3" font-weight="600"><tspan x="115.0" dy="0">Clients</tspan><tspan x="115.0" dy="16">CLI/Web/SDK</tspan></text><rect x="210" y="90" width="140" height="60" rx="10" fill="#0f172a" stroke="#38bdf8" stroke-width="2"/><text x="280.0" y="112.0" text-anchor="middle" font-family="Segoe UI, Arial" font-size="15" fill="#e6edf3" font-weight="600"><tspan x="280.0" dy="0">API</tspan><tspan x="280.0" dy="16">Gateway</tspan></text><rect x="370" y="90" width="170" height="60" rx="10" fill="#0f172a" stroke="#38bdf8" stroke-width="2"/><text x="455.0" y="112.0" text-anchor="middle" font-family="Segoe UI, Arial" font-size="15" fill="#e6edf3" font-weight="600"><tspan x="455.0" dy="0">FastAPI</tspan><tspan x="455.0" dy="16">Auth/Rate</tspan><tspan x="455.0" dy="16">Validate</tspan></text><rect x="560" y="90" width="180" height="60" rx="10" fill="#0f172a" stroke="#38bdf8" stroke-width="2"/><text x="650.0" y="112.0" text-anchor="middle" font-family="Segoe UI, Arial" font-size="15" fill="#e6edf3" font-weight="600"><tspan x="650.0" dy="0">Orchestrator</tspan><tspan x="650.0" dy="16">Coordinator</tspan><tspan x="650.0" dy="16">Aggregator</tspan></text><rect x="760" y="90" width="140" height="60" rx="10" fill="#0f172a" stroke="#38bdf8" stroke-width="2"/><text x="830.0" y="112.0" text-anchor="middle" font-family="Segoe UI, Arial" font-size="15" fill="#e6edf3" font-weight="600"><tspan x="830.0" dy="0">Agents</tspan></text><rect x="920" y="90" width="200" height="60" rx="10" fill="#0f172a" stroke="#38bdf8" stroke-width="2"/><text x="1020.0" y="112.0" text-anchor="middle" font-family="Segoe UI, Arial" font-size="15" fill="#e6edf3" font-weight="600"><tspan x="1020.0" dy="0">LLM APIs</tspan><tspan x="1020.0" dy="16">(OpenRouter)</tspan></text><line x1="190" y1="120" x2="210" y2="120" stroke="#38bdf8" stroke-width="2" marker-end="url(#arrow)" /><line x1="350" y1="120" x2="370" y2="120" stroke="#38bdf8" stroke-width="2" marker-end="url(#arrow)" /><line x1="540" y1="120" x2="560" y2="120" stroke="#38bdf8" stroke-width="2" marker-end="url(#arrow)" /><line x1="740" y1="120" x2="760" y2="120" stroke="#38bdf8" stroke-width="2" marker-end="url(#arrow)" /><line x1="900" y1="120" x2="920" y2="120" stroke="#38bdf8" stroke-width="2" marker-end="url(#arrow)" /></svg>
