<svg width="1200" height="240" viewBox="0 0 1200 240" xmlns="http://www.w3.org/2000/svg">
  <defs>
    <linearGradient id="bg" x1="0" y1="0" x2="1" y2="1">
      <stop offset="0%" stop-color="#0b0f1a" />
      <stop offset="100%" stop-color="#111827" />
    </linearGradient>
    <marker id="arrow" markerWidth="10" markerHeight="8" refX="9" refY="4" orient="auto">
      <polygon points="0,0 10,4 0,8" fill="#38bdf8" />
    </marker>
    <filter id="glow" x="-50%" y="-50%" width="200%" height="200%">
      <feGaussianBlur in="SourceGraphic" stdDeviation="3" result="blur" />
      <feMerge>
        <feMergeNode in="blur"/>
        <feMergeNode in="SourceGraphic"/>
      </feMerge>
    </filter>
  </defs>
  <rect width="1200" height="240" fill="url(#bg)" rx="16"/>
  <rect x="8" y="8" width="1184" height="224" fill="none" stroke="#1f2937" rx="14"/>
<rect x="60" y="90" width="170" height="60" rx="10" fill="#0f172a" stroke="#38bdf8" stroke-width="2"/><text x="145.0" y="112.0" text-anchor="middle" font-family="Segoe UI, Arial" font-size="15" fill="#e6edf3" font-weight="600"><tspan x="145.0" dy="0">User</tspan><tspan x="145.0" dy="16">Input</tspan></text><rect x="260" y="90" width="180" height="60" rx="10" fill="#0f172a" stroke="#38bdf8" stroke-width="2"/><text x="350.0" y="112.0" text-anchor="middle" font-family="Segoe UI, Arial" font-size="15" fill="#e6edf3" font-weight="600"><tspan x="350.0" dy="0">Memory Recall</tspan><tspan x="350.0" dy="16">Vector Search</tspan></text><rect x="470" y="90" width="170" height="60" rx="10" fill="#0f172a" stroke="#38bdf8" stroke-width="2"/><text x="555.0" y="112.0" text-anchor="middle" font-family="Segoe UI, Arial" font-size="15" fill="#e6edf3" font-weight="600"><tspan x="555.0" dy="0">LLM</tspan><tspan x="555.0" dy="16">Response</tspan></text><rect x="660" y="90" width="180" height="60" rx="10" fill="#0f172a" stroke="#38bdf8" stroke-width="2"/><text x="750.0" y="112.0" text-anchor="middle" font-family="Segoe UI, Arial" font-size="15" fill="#e6edf3" font-weight="600"><tspan x="750.0" dy="0">Encode +</tspan><tspan x="750.0" dy="16">Link Memory</tspan></text><rect x="870" y="90" width="170" height="60" rx="10" fill="#0f172a" stroke="#38bdf8" stroke-width="2"/><text x="955.0" y="112.0" text-anchor="middle" font-family="Segoe UI, Arial" font-size="15" fill="#e6edf3" font-weight="600"><tspan x="955.0" dy="0">Evolution</tspan><tspan x="955.0" dy="16">Check</tspan></text><rect x="1060" y="90" width="120" height="60" rx="10" fill="#0f172a" stroke="#38bdf8" stroke-width="2"/><text x="1120.0" y="112.0" text-anchor="middle" font-family="Segoe UI, Arial" font-size="15" fill="#e6edf3" font-weight="600"><tspan x="1120.0" dy="0">Save</tspan><tspan x="1120.0" dy="16">State</tspan></text><line x1="230" y1="120" x2="260" y2="120" stroke="#38bdf8" stroke-width="2" marker-end="url(#arrow)" /><line x1="440" y1="120" x2="470" y2="120" stroke="#38bdf8" stroke-width="2" marker-end="url(#arrow)" /><line x1="640" y1="120" x2="660" y2="120" stroke="#38bdf8" stroke-width="2" marker-end="url(#arrow)" /><line x1="840" y1="120" x2="870" y2="120" stroke="#38bdf8" stroke-width="2" marker-end="url(#arrow)" /><line x1="1040" y1="120" x2="1060" y2="120" stroke="#38bdf8" stroke-width="2" marker-end="url(#arrow)" /><line x1="1120" y1="120" x2="60" y2="120" stroke="#38bdf8" stroke-width="2" marker-end="url(#arrow)" /></svg>
