<svg width="1200" height="240" viewBox="0 0 1200 240" xmlns="http://www.w3.org/2000/svg">
  <defs>
    <linearGradient id="bg" x1="0" y1="0" x2="1" y2="1">
      <stop offset="0%" stop-color="#0b0f1a" />
      <stop offset="100%" stop-color="#111827" />
    </linearGradient>
    <marker id="arrow" markerWidth="10" markerHeight="8" refX="9" refY="4" orient="auto">
      <polygon points="0,0 10,4 0,8" fill="#38bdf8" />
    </marker>
    <filter id="glow" x="-50%" y="-50%" width="200%" height="200%">
      <feGaussianBlur in="SourceGraphic" stdDeviation="3" result="blur" />
      <feMerge>
        <feMergeNode in="blur"/>
        <feMergeNode in="SourceGraphic"/>
      </feMerge>
    </filter>
  </defs>
  <rect width="1200" height="240" fill="url(#bg)" rx="16"/>
  <rect x="8" y="8" width="1184" height="224" fill="none" stroke="#1f2937" rx="14"/>
<rect x="80" y="90" width="160" height="60" rx="10" fill="#0f172a" stroke="#38bdf8" stroke-width="2"/><text x="160.0" y="112.0" text-anchor="middle" font-family="Segoe UI, Arial" font-size="15" fill="#e6edf3" font-weight="600"><tspan x="160.0" dy="0">Input X</tspan></text><rect x="300" y="40" width="150" height="50" rx="10" fill="#0f172a" stroke="#38bdf8" stroke-width="2"/><text x="375.0" y="57.0" text-anchor="middle" font-family="Segoe UI, Arial" font-size="15" fill="#e6edf3" font-weight="600"><tspan x="375.0" dy="0">k(X)</tspan><tspan x="375.0" dy="16">Direction</tspan></text><rect x="300" y="100" width="150" height="50" rx="10" fill="#0f172a" stroke="#38bdf8" stroke-width="2"/><text x="375.0" y="117.0" text-anchor="middle" font-family="Segoe UI, Arial" font-size="15" fill="#e6edf3" font-weight="600"><tspan x="375.0" dy="0">β(X)</tspan><tspan x="375.0" dy="16">Gate</tspan></text><rect x="300" y="160" width="150" height="50" rx="10" fill="#0f172a" stroke="#38bdf8" stroke-width="2"/><text x="375.0" y="177.0" text-anchor="middle" font-family="Segoe UI, Arial" font-size="15" fill="#e6edf3" font-weight="600"><tspan x="375.0" dy="0">v(X)</tspan><tspan x="375.0" dy="16">Value</tspan></text><rect x="520" y="90" width="200" height="60" rx="10" fill="#0f172a" stroke="#f97316" stroke-width="2"/><text x="620.0" y="112.0" text-anchor="middle" font-family="Segoe UI, Arial" font-size="15" fill="#e6edf3" font-weight="600"><tspan x="620.0" dy="0">Delta Operator</tspan><tspan x="620.0" dy="16">I − β k kᵀ</tspan></text><rect x="760" y="90" width="180" height="60" rx="10" fill="#0f172a" stroke="#38bdf8" stroke-width="2"/><text x="850.0" y="112.0" text-anchor="middle" font-family="Segoe UI, Arial" font-size="15" fill="#e6edf3" font-weight="600"><tspan x="850.0" dy="0">Ouroboros</tspan><tspan x="850.0" dy="16">Residual</tspan></text><rect x="980" y="90" width="140" height="60" rx="10" fill="#0f172a" stroke="#38bdf8" stroke-width="2"/><text x="1050.0" y="112.0" text-anchor="middle" font-family="Segoe UI, Arial" font-size="15" fill="#e6edf3" font-weight="600"><tspan x="1050.0" dy="0">Output</tspan></text><line x1="240" y1="120" x2="300" y2="65" stroke="#38bdf8" stroke-width="2" marker-end="url(#arrow)" /><line x1="240" y1="120" x2="300" y2="125" stroke="#38bdf8" stroke-width="2" marker-end="url(#arrow)" /><line x1="240" y1="120" x2="300" y2="185" stroke="#38bdf8" stroke-width="2" marker-end="url(#arrow)" /><line x1="450" y1="65" x2="520" y2="120" stroke="#38bdf8" stroke-width="2" marker-end="url(#arrow)" /><line x1="450" y1="125" x2="520" y2="120" stroke="#38bdf8" stroke-width="2" marker-end="url(#arrow)" /><line x1="450" y1="185" x2="520" y2="120" stroke="#38bdf8" stroke-width="2" marker-end="url(#arrow)" /><line x1="720" y1="120" x2="760" y2="120" stroke="#38bdf8" stroke-width="2" marker-end="url(#arrow)" /><line x1="940" y1="120" x2="980" y2="120" stroke="#38bdf8" stroke-width="2" marker-end="url(#arrow)" /></svg>
