<svg width="1440" height="288" viewBox="0 0 1440 288" xmlns="http://www.w3.org/2000/svg">
  <defs>
    <linearGradient id="bg" x1="0" y1="0" x2="1" y2="1">
      <stop offset="0%" stop-color="#120b14" />
      <stop offset="100%" stop-color="#2a0f24" />
    </linearGradient>
    <marker id="arrow" markerWidth="12" markerHeight="10" refX="11" refY="5" orient="auto">
      <polygon points="0,0 12,5 0,10" fill="#ec4899" />
    </marker>
    <filter id="glow" x="-50%" y="-50%" width="200%" height="200%">
      <feGaussianBlur in="SourceGraphic" stdDeviation="3" result="blur" />
      <feMerge>
        <feMergeNode in="blur"/>
        <feMergeNode in="SourceGraphic"/>
      </feMerge>
    </filter>
  </defs>
  <rect width="1440" height="288" fill="url(#bg)" rx="19"/>
  <rect x="10" y="10" width="1421" height="269" fill="none" stroke="#1f2937" rx="17"/>
<g transform="translate(180.0 36.0) scale(0.75)">
<rect x="72" y="96" width="216" height="84" rx="12" fill="#ec4899" fill-opacity="0.16" stroke="#ec4899" stroke-width="3"/><text x="180.0" y="128.0" text-anchor="middle" font-family="Segoe UI, Arial" font-size="19" fill="#e6edf3" font-weight="700" letter-spacing="0.3"><tspan x="180.0" dy="0">Input</tspan><tspan x="180.0" dy="19">Tokens</tspan></text><rect x="324" y="96" width="228" height="84" rx="12" fill="#ec4899" fill-opacity="0.16" stroke="#ec4899" stroke-width="3"/><text x="438.0" y="128.0" text-anchor="middle" font-family="Segoe UI, Arial" font-size="19" fill="#e6edf3" font-weight="700" letter-spacing="0.3"><tspan x="438.0" dy="0">Embedding</tspan></text><rect x="576" y="60" width="228" height="84" rx="12" fill="#ec4899" fill-opacity="0.16" stroke="#ec4899" stroke-width="3"/><text x="690.0" y="92.0" text-anchor="middle" font-family="Segoe UI, Arial" font-size="19" fill="#e6edf3" font-weight="700" letter-spacing="0.3"><tspan x="690.0" dy="0">L-Module</tspan><tspan x="690.0" dy="19">Fast</tspan></text><rect x="576" y="168" width="228" height="84" rx="12" fill="#ec4899" fill-opacity="0.16" stroke="#ec4899" stroke-width="3"/><text x="690.0" y="200.0" text-anchor="middle" font-family="Segoe UI, Arial" font-size="19" fill="#e6edf3" font-weight="700" letter-spacing="0.3"><tspan x="690.0" dy="0">H-Module</tspan><tspan x="690.0" dy="19">Global</tspan></text><rect x="840" y="96" width="240" height="84" rx="12" fill="#ec4899" fill-opacity="0.16" stroke="#ec4899" stroke-width="3"/><text x="960.0" y="128.0" text-anchor="middle" font-family="Segoe UI, Arial" font-size="19" fill="#e6edf3" font-weight="700" letter-spacing="0.3"><tspan x="960.0" dy="0">Synchronization</tspan></text><rect x="1116" y="96" width="240" height="84" rx="12" fill="#ec4899" fill-opacity="0.16" stroke="#ec4899" stroke-width="3"/><text x="1236.0" y="128.0" text-anchor="middle" font-family="Segoe UI, Arial" font-size="19" fill="#e6edf3" font-weight="700" letter-spacing="0.3"><tspan x="1236.0" dy="0">Thinking</tspan><tspan x="1236.0" dy="19">Cycles</tspan></text><rect x="1392" y="96" width="192" height="84" rx="12" fill="#ec4899" fill-opacity="0.16" stroke="#ec4899" stroke-width="3"/><text x="1488.0" y="128.0" text-anchor="middle" font-family="Segoe UI, Arial" font-size="19" fill="#e6edf3" font-weight="700" letter-spacing="0.3"><tspan x="1488.0" dy="0">Output</tspan></text><line x1="288" y1="138" x2="324" y2="138" stroke="#ec4899" stroke-width="2" marker-end="url(#arrow)" /><line x1="552" y1="138" x2="576" y2="102" stroke="#ec4899" stroke-width="2" marker-end="url(#arrow)" /><line x1="552" y1="138" x2="576" y2="198" stroke="#ec4899" stroke-width="2" marker-end="url(#arrow)" /><line x1="804" y1="102" x2="840" y2="138" stroke="#ec4899" stroke-width="2" marker-end="url(#arrow)" /><line x1="804" y1="198" x2="840" y2="138" stroke="#ec4899" stroke-width="2" marker-end="url(#arrow)" /><line x1="1080" y1="138" x2="1116" y2="138" stroke="#ec4899" stroke-width="2" marker-end="url(#arrow)" /><line x1="1356" y1="138" x2="1392" y2="138" stroke="#ec4899" stroke-width="2" marker-end="url(#arrow)" />
</g></svg>
