<svg width="1440" height="288" viewBox="0 0 1440 288" xmlns="http://www.w3.org/2000/svg">
  <defs>
    <linearGradient id="bg" x1="0" y1="0" x2="1" y2="1">
      <stop offset="0%" stop-color="#0c0b1a" />
      <stop offset="100%" stop-color="#1a1033" />
    </linearGradient>
    <marker id="arrow" markerWidth="12" markerHeight="10" refX="11" refY="5" orient="auto">
      <polygon points="0,0 12,5 0,10" fill="#7c3aed" />
    </marker>
    <filter id="glow" x="-50%" y="-50%" width="200%" height="200%">
      <feGaussianBlur in="SourceGraphic" stdDeviation="3" result="blur" />
      <feMerge>
        <feMergeNode in="blur"/>
        <feMergeNode in="SourceGraphic"/>
      </feMerge>
    </filter>
  </defs>
  <rect width="1440" height="288" fill="url(#bg)" rx="19"/>
  <rect x="10" y="10" width="1421" height="269" fill="none" stroke="#1f2937" rx="17"/>
<g transform="translate(180.0 36.0) scale(0.75)">
<rect x="48" y="96" width="216" height="84" rx="12" fill="#7c3aed" fill-opacity="0.16" stroke="#7c3aed" stroke-width="3"/><text x="156.0" y="128.0" text-anchor="middle" font-family="Segoe UI, Arial" font-size="19" fill="#e6edf3" font-weight="700" letter-spacing="0.3"><tspan x="156.0" dy="0">Clients</tspan><tspan x="156.0" dy="19">CLI/Web/SDK</tspan></text><rect x="288" y="96" width="192" height="84" rx="12" fill="#7c3aed" fill-opacity="0.16" stroke="#7c3aed" stroke-width="3"/><text x="384.0" y="128.0" text-anchor="middle" font-family="Segoe UI, Arial" font-size="19" fill="#e6edf3" font-weight="700" letter-spacing="0.3"><tspan x="384.0" dy="0">API</tspan><tspan x="384.0" dy="19">Gateway</tspan></text><rect x="504" y="96" width="240" height="84" rx="12" fill="#7c3aed" fill-opacity="0.16" stroke="#7c3aed" stroke-width="3"/><text x="624.0" y="128.0" text-anchor="middle" font-family="Segoe UI, Arial" font-size="18" fill="#e6edf3" font-weight="700" letter-spacing="0.3"><tspan x="624.0" dy="0">FastAPI</tspan><tspan x="624.0" dy="19">Auth/Rate</tspan><tspan x="624.0" dy="19">Validate</tspan></text><rect x="768" y="96" width="252" height="84" rx="12" fill="#7c3aed" fill-opacity="0.16" stroke="#7c3aed" stroke-width="3"/><text x="894.0" y="128.0" text-anchor="middle" font-family="Segoe UI, Arial" font-size="18" fill="#e6edf3" font-weight="700" letter-spacing="0.3"><tspan x="894.0" dy="0">Orchestrator</tspan><tspan x="894.0" dy="19">Coordinator</tspan><tspan x="894.0" dy="19">Aggregator</tspan></text><rect x="1044" y="96" width="192" height="84" rx="12" fill="#7c3aed" fill-opacity="0.16" stroke="#7c3aed" stroke-width="3"/><text x="1140.0" y="128.0" text-anchor="middle" font-family="Segoe UI, Arial" font-size="19" fill="#e6edf3" font-weight="700" letter-spacing="0.3"><tspan x="1140.0" dy="0">Agents</tspan></text><rect x="1260" y="96" width="276" height="84" rx="12" fill="#7c3aed" fill-opacity="0.16" stroke="#7c3aed" stroke-width="3"/><text x="1398.0" y="128.0" text-anchor="middle" font-family="Segoe UI, Arial" font-size="19" fill="#e6edf3" font-weight="700" letter-spacing="0.3"><tspan x="1398.0" dy="0">LLM APIs</tspan><tspan x="1398.0" dy="19">(OpenRouter)</tspan></text><line x1="264" y1="138" x2="288" y2="138" stroke="#7c3aed" stroke-width="2" marker-end="url(#arrow)" /><line x1="480" y1="138" x2="504" y2="138" stroke="#7c3aed" stroke-width="2" marker-end="url(#arrow)" /><line x1="744" y1="138" x2="768" y2="138" stroke="#7c3aed" stroke-width="2" marker-end="url(#arrow)" /><line x1="1020" y1="138" x2="1044" y2="138" stroke="#7c3aed" stroke-width="2" marker-end="url(#arrow)" /><line x1="1236" y1="138" x2="1260" y2="138" stroke="#7c3aed" stroke-width="2" marker-end="url(#arrow)" />
</g></svg>
