<svg width="1200" height="240" viewBox="0 0 1200 240" xmlns="http://www.w3.org/2000/svg">
  <defs>
    <linearGradient id="bg" x1="0" y1="0" x2="1" y2="1">
      <stop offset="0%" stop-color="#0b0f1a" />
      <stop offset="100%" stop-color="#111827" />
    </linearGradient>
    <marker id="arrow" markerWidth="10" markerHeight="8" refX="9" refY="4" orient="auto">
      <polygon points="0,0 10,4 0,8" fill="#38bdf8" />
    </marker>
    <filter id="glow" x="-50%" y="-50%" width="200%" height="200%">
      <feGaussianBlur in="SourceGraphic" stdDeviation="3" result="blur" />
      <feMerge>
        <feMergeNode in="blur"/>
        <feMergeNode in="SourceGraphic"/>
      </feMerge>
    </filter>
  </defs>
  <rect width="1200" height="240" fill="url(#bg)" rx="16"/>
  <rect x="8" y="8" width="1184" height="224" fill="none" stroke="#1f2937" rx="14"/>
<rect x="60" y="90" width="150" height="60" rx="10" fill="#0f172a" stroke="#38bdf8" stroke-width="2"/><text x="135.0" y="112.0" text-anchor="middle" font-family="Segoe UI, Arial" font-size="15" fill="#e6edf3" font-weight="600"><tspan x="135.0" dy="0">Input</tspan><tspan x="135.0" dy="16">Tokens</tspan></text><rect x="240" y="90" width="160" height="60" rx="10" fill="#0f172a" stroke="#38bdf8" stroke-width="2"/><text x="320.0" y="112.0" text-anchor="middle" font-family="Segoe UI, Arial" font-size="15" fill="#e6edf3" font-weight="600"><tspan x="320.0" dy="0">Embedding</tspan></text><rect x="430" y="50" width="160" height="60" rx="10" fill="#0f172a" stroke="#38bdf8" stroke-width="2"/><text x="510.0" y="72.0" text-anchor="middle" font-family="Segoe UI, Arial" font-size="15" fill="#e6edf3" font-weight="600"><tspan x="510.0" dy="0">L-Module</tspan><tspan x="510.0" dy="16">Fast</tspan></text><rect x="430" y="130" width="160" height="60" rx="10" fill="#0f172a" stroke="#38bdf8" stroke-width="2"/><text x="510.0" y="152.0" text-anchor="middle" font-family="Segoe UI, Arial" font-size="15" fill="#e6edf3" font-weight="600"><tspan x="510.0" dy="0">H-Module</tspan><tspan x="510.0" dy="16">Global</tspan></text><rect x="620" y="90" width="170" height="60" rx="10" fill="#0f172a" stroke="#38bdf8" stroke-width="2"/><text x="705.0" y="112.0" text-anchor="middle" font-family="Segoe UI, Arial" font-size="15" fill="#e6edf3" font-weight="600"><tspan x="705.0" dy="0">Synchronization</tspan></text><rect x="820" y="90" width="170" height="60" rx="10" fill="#0f172a" stroke="#38bdf8" stroke-width="2"/><text x="905.0" y="112.0" text-anchor="middle" font-family="Segoe UI, Arial" font-size="15" fill="#e6edf3" font-weight="600"><tspan x="905.0" dy="0">Thinking</tspan><tspan x="905.0" dy="16">Cycles</tspan></text><rect x="1030" y="90" width="130" height="60" rx="10" fill="#0f172a" stroke="#38bdf8" stroke-width="2"/><text x="1095.0" y="112.0" text-anchor="middle" font-family="Segoe UI, Arial" font-size="15" fill="#e6edf3" font-weight="600"><tspan x="1095.0" dy="0">Output</tspan></text><line x1="210" y1="120" x2="240" y2="120" stroke="#38bdf8" stroke-width="2" marker-end="url(#arrow)" /><line x1="400" y1="120" x2="430" y2="80" stroke="#38bdf8" stroke-width="2" marker-end="url(#arrow)" /><line x1="400" y1="120" x2="430" y2="160" stroke="#38bdf8" stroke-width="2" marker-end="url(#arrow)" /><line x1="590" y1="80" x2="620" y2="120" stroke="#38bdf8" stroke-width="2" marker-end="url(#arrow)" /><line x1="590" y1="160" x2="620" y2="120" stroke="#38bdf8" stroke-width="2" marker-end="url(#arrow)" /><line x1="790" y1="120" x2="820" y2="120" stroke="#38bdf8" stroke-width="2" marker-end="url(#arrow)" /><line x1="990" y1="120" x2="1030" y2="120" stroke="#38bdf8" stroke-width="2" marker-end="url(#arrow)" /></svg>
