<svg width="1440" height="288" viewBox="0 0 1440 288" xmlns="http://www.w3.org/2000/svg">
  <defs>
    <linearGradient id="bg" x1="0" y1="0" x2="1" y2="1">
      <stop offset="0%" stop-color="#0b1410" />
      <stop offset="100%" stop-color="#0f2418" />
    </linearGradient>
    <marker id="arrow" markerWidth="12" markerHeight="10" refX="11" refY="5" orient="auto">
      <polygon points="0,0 12,5 0,10" fill="#10b981" />
    </marker>
    <filter id="glow" x="-50%" y="-50%" width="200%" height="200%">
      <feGaussianBlur in="SourceGraphic" stdDeviation="3" result="blur" />
      <feMerge>
        <feMergeNode in="blur"/>
        <feMergeNode in="SourceGraphic"/>
      </feMerge>
    </filter>
  </defs>
  <rect width="1440" height="288" fill="url(#bg)" rx="19"/>
  <rect x="10" y="10" width="1421" height="269" fill="none" stroke="#1f2937" rx="17"/>
<rect x="96" y="96" width="216" height="84" rx="12" fill="#10b981" fill-opacity="0.16" stroke="#10b981" stroke-width="3"/><text x="204.0" y="128.0" text-anchor="middle" font-family="Segoe UI, Arial" font-size="19" fill="#e6edf3" font-weight="700" letter-spacing="0.3"><tspan x="204.0" dy="0">Input X</tspan></text><rect x="384" y="48" width="204" height="72" rx="12" fill="#10b981" fill-opacity="0.16" stroke="#10b981" stroke-width="3"/><text x="486.0" y="74.0" text-anchor="middle" font-family="Segoe UI, Arial" font-size="19" fill="#e6edf3" font-weight="700" letter-spacing="0.3"><tspan x="486.0" dy="0">k(X)</tspan><tspan x="486.0" dy="19">Direction</tspan></text><rect x="384" y="126" width="204" height="72" rx="12" fill="#10b981" fill-opacity="0.16" stroke="#10b981" stroke-width="3"/><text x="486.0" y="152.0" text-anchor="middle" font-family="Segoe UI, Arial" font-size="19" fill="#e6edf3" font-weight="700" letter-spacing="0.3"><tspan x="486.0" dy="0">β(X)</tspan><tspan x="486.0" dy="19">Gate</tspan></text><rect x="384" y="204" width="204" height="72" rx="12" fill="#10b981" fill-opacity="0.16" stroke="#10b981" stroke-width="3"/><text x="486.0" y="230.0" text-anchor="middle" font-family="Segoe UI, Arial" font-size="19" fill="#e6edf3" font-weight="700" letter-spacing="0.3"><tspan x="486.0" dy="0">v(X)</tspan><tspan x="486.0" dy="19">Value</tspan></text><rect x="648" y="96" width="276" height="84" rx="12" fill="#10b981" fill-opacity="0.16" stroke="#10b981" stroke-width="3"/><text x="786.0" y="128.0" text-anchor="middle" font-family="Segoe UI, Arial" font-size="19" fill="#e6edf3" font-weight="700" letter-spacing="0.3"><tspan x="786.0" dy="0">Delta Operator</tspan><tspan x="786.0" dy="19">I − β k kᵀ</tspan></text><rect x="960" y="96" width="252" height="84" rx="12" fill="#10b981" fill-opacity="0.16" stroke="#10b981" stroke-width="3"/><text x="1086.0" y="128.0" text-anchor="middle" font-family="Segoe UI, Arial" font-size="19" fill="#e6edf3" font-weight="700" letter-spacing="0.3"><tspan x="1086.0" dy="0">Ouroboros</tspan><tspan x="1086.0" dy="19">Residual</tspan></text><rect x="1248" y="96" width="192" height="84" rx="12" fill="#10b981" fill-opacity="0.16" stroke="#10b981" stroke-width="3"/><text x="1344.0" y="128.0" text-anchor="middle" font-family="Segoe UI, Arial" font-size="19" fill="#e6edf3" font-weight="700" letter-spacing="0.3"><tspan x="1344.0" dy="0">Output</tspan></text><line x1="312" y1="138" x2="384" y2="72" stroke="#10b981" stroke-width="2" marker-end="url(#arrow)" /><line x1="312" y1="138" x2="384" y2="162" stroke="#10b981" stroke-width="2" marker-end="url(#arrow)" /><line x1="312" y1="138" x2="384" y2="240" stroke="#10b981" stroke-width="2" marker-end="url(#arrow)" /><line x1="588" y1="72" x2="648" y2="138" stroke="#10b981" stroke-width="2" marker-end="url(#arrow)" /><line x1="588" y1="162" x2="648" y2="138" stroke="#10b981" stroke-width="2" marker-end="url(#arrow)" /><line x1="588" y1="240" x2="648" y2="138" stroke="#10b981" stroke-width="2" marker-end="url(#arrow)" /><line x1="924" y1="138" x2="960" y2="138" stroke="#10b981" stroke-width="2" marker-end="url(#arrow)" /><line x1="1212" y1="138" x2="1248" y2="138" stroke="#10b981" stroke-width="2" marker-end="url(#arrow)" /></svg>
