<svg width="1440" height="288" viewBox="0 0 1440 288" xmlns="http://www.w3.org/2000/svg">
  <defs>
    <linearGradient id="bg" x1="0" y1="0" x2="1" y2="1">
      <stop offset="0%" stop-color="#0b0f1a" />
      <stop offset="100%" stop-color="#111827" />
    </linearGradient>
    <marker id="arrow" markerWidth="12" markerHeight="10" refX="11" refY="5" orient="auto">
      <polygon points="0,0 12,5 0,10" fill="#38bdf8" />
    </marker>
    <filter id="glow" x="-50%" y="-50%" width="200%" height="200%">
      <feGaussianBlur in="SourceGraphic" stdDeviation="4" result="blur" />
      <feMerge>
        <feMergeNode in="blur"/>
        <feMergeNode in="SourceGraphic"/>
      </feMerge>
    </filter>
  </defs>
  <rect width="1440" height="288" fill="url(#bg)" rx="19"/>
  <rect x="10" y="10" width="1421" height="269" fill="none" stroke="#1f2937" rx="17"/>
<g transform="translate(72.0 14.4) scale(0.9)">
<rect x="72" y="108" width="228" height="84" rx="12" fill="#0f172a" stroke="#38bdf8" stroke-width="2"/><text x="186.0" y="140.0" text-anchor="middle" font-family="Segoe UI, Arial" font-size="18" fill="#e6edf3" font-weight="600"><tspan x="186.0" dy="0">User</tspan><tspan x="186.0" dy="19">Input</tspan></text><rect x="336" y="108" width="252" height="84" rx="12" fill="#0f172a" stroke="#38bdf8" stroke-width="2"/><text x="462.0" y="140.0" text-anchor="middle" font-family="Segoe UI, Arial" font-size="18" fill="#e6edf3" font-weight="600"><tspan x="462.0" dy="0">Memory Recall</tspan><tspan x="462.0" dy="19">Vector Search</tspan></text><rect x="624" y="108" width="228" height="84" rx="12" fill="#0f172a" stroke="#38bdf8" stroke-width="2"/><text x="738.0" y="140.0" text-anchor="middle" font-family="Segoe UI, Arial" font-size="18" fill="#e6edf3" font-weight="600"><tspan x="738.0" dy="0">LLM</tspan><tspan x="738.0" dy="19">Response</tspan></text><rect x="888" y="108" width="252" height="84" rx="12" fill="#0f172a" stroke="#38bdf8" stroke-width="2"/><text x="1014.0" y="140.0" text-anchor="middle" font-family="Segoe UI, Arial" font-size="18" fill="#e6edf3" font-weight="600"><tspan x="1014.0" dy="0">Encode +</tspan><tspan x="1014.0" dy="19">Link Memory</tspan></text><rect x="1176" y="108" width="228" height="84" rx="12" fill="#0f172a" stroke="#38bdf8" stroke-width="2"/><text x="1290.0" y="140.0" text-anchor="middle" font-family="Segoe UI, Arial" font-size="18" fill="#e6edf3" font-weight="600"><tspan x="1290.0" dy="0">Evolution</tspan><tspan x="1290.0" dy="19">Check</tspan></text><rect x="1440" y="108" width="204" height="84" rx="12" fill="#0f172a" stroke="#38bdf8" stroke-width="2"/><text x="1542.0" y="140.0" text-anchor="middle" font-family="Segoe UI, Arial" font-size="18" fill="#e6edf3" font-weight="600"><tspan x="1542.0" dy="0">Save</tspan><tspan x="1542.0" dy="19">State</tspan></text><line x1="300" y1="150" x2="336" y2="150" stroke="#38bdf8" stroke-width="2" marker-end="url(#arrow)" /><line x1="588" y1="150" x2="624" y2="150" stroke="#38bdf8" stroke-width="2" marker-end="url(#arrow)" /><line x1="852" y1="150" x2="888" y2="150" stroke="#38bdf8" stroke-width="2" marker-end="url(#arrow)" /><line x1="1140" y1="150" x2="1176" y2="150" stroke="#38bdf8" stroke-width="2" marker-end="url(#arrow)" /><line x1="1404" y1="150" x2="1440" y2="150" stroke="#38bdf8" stroke-width="2" marker-end="url(#arrow)" /><line x1="1524" y1="150" x2="72" y2="150" stroke="#38bdf8" stroke-width="2" marker-end="url(#arrow)" /></g>
</svg>
