<svg width="1440" height="288" viewBox="0 0 1440 288" xmlns="http://www.w3.org/2000/svg">
  <defs>
    <linearGradient id="bg" x1="0" y1="0" x2="1" y2="1">
      <stop offset="0%" stop-color="#0b0f1a" />
      <stop offset="100%" stop-color="#111827" />
    </linearGradient>
    <marker id="arrow" markerWidth="12" markerHeight="10" refX="11" refY="5" orient="auto">
      <polygon points="0,0 12,5 0,10" fill="#38bdf8" />
    </marker>
    <filter id="glow" x="-50%" y="-50%" width="200%" height="200%">
      <feGaussianBlur in="SourceGraphic" stdDeviation="4" result="blur" />
      <feMerge>
        <feMergeNode in="blur"/>
        <feMergeNode in="SourceGraphic"/>
      </feMerge>
    </filter>
  </defs>
  <rect width="1440" height="288" fill="url(#bg)" rx="19"/>
  <rect x="10" y="10" width="1421" height="269" fill="none" stroke="#1f2937" rx="17"/>
<rect x="72" y="96" width="204" height="84" rx="12" fill="#0f172a" stroke="#38bdf8" stroke-width="2"/><text x="174.0" y="128.0" text-anchor="middle" font-family="Segoe UI, Arial" font-size="18" fill="#e6edf3" font-weight="600"><tspan x="174.0" dy="0">Input</tspan><tspan x="174.0" dy="19">Tokens</tspan></text><rect x="300" y="96" width="204" height="84" rx="12" fill="#0f172a" stroke="#38bdf8" stroke-width="2"/><text x="402.0" y="128.0" text-anchor="middle" font-family="Segoe UI, Arial" font-size="18" fill="#e6edf3" font-weight="600"><tspan x="402.0" dy="0">Patch</tspan><tspan x="402.0" dy="19">Embed</tspan></text><rect x="528" y="96" width="228" height="84" rx="12" fill="#0f172a" stroke="#38bdf8" stroke-width="2"/><text x="642.0" y="128.0" text-anchor="middle" font-family="Segoe UI, Arial" font-size="18" fill="#e6edf3" font-weight="600"><tspan x="642.0" dy="0">Autoencoder</tspan></text><rect x="780" y="96" width="204" height="84" rx="12" fill="#0f172a" stroke="#38bdf8" stroke-width="2"/><text x="882.0" y="128.0" text-anchor="middle" font-family="Segoe UI, Arial" font-size="18" fill="#e6edf3" font-weight="600"><tspan x="882.0" dy="0">Latent</tspan><tspan x="882.0" dy="19">Vector</tspan></text><rect x="1008" y="96" width="276" height="84" rx="12" fill="#0f172a" stroke="#38bdf8" stroke-width="2"/><text x="1146.0" y="128.0" text-anchor="middle" font-family="Segoe UI, Arial" font-size="18" fill="#e6edf3" font-weight="600"><tspan x="1146.0" dy="0">Continuous</tspan><tspan x="1146.0" dy="19">Model</tspan><tspan x="1146.0" dy="19">(Energy/Diff/Flow)</tspan></text><rect x="1308" y="96" width="240" height="84" rx="12" fill="#1f2937" stroke="#f97316" stroke-width="2"/><text x="1428.0" y="128.0" text-anchor="middle" font-family="Segoe UI, Arial" font-size="18" fill="#e6edf3" font-weight="600"><tspan x="1428.0" dy="0">Decoder →</tspan><tspan x="1428.0" dy="19">Tokens</tspan></text><line x1="276" y1="138" x2="300" y2="138" stroke="#38bdf8" stroke-width="2" marker-end="url(#arrow)" /><line x1="504" y1="138" x2="528" y2="138" stroke="#38bdf8" stroke-width="2" marker-end="url(#arrow)" /><line x1="756" y1="138" x2="780" y2="138" stroke="#38bdf8" stroke-width="2" marker-end="url(#arrow)" /><line x1="984" y1="138" x2="1008" y2="138" stroke="#38bdf8" stroke-width="2" marker-end="url(#arrow)" /><line x1="1284" y1="138" x2="1308" y2="138" stroke="#38bdf8" stroke-width="2" marker-end="url(#arrow)" /></svg>
